/* XPM */
static char *onemoresamegame[] = {
/* columns rows colors chars-per-pixel */
"32 32 256 2 ",
"   c #000101",
".  c #0A0B09",
"X  c #0F100A",
"o  c #161601",
"O  c #050D12",
"+  c #080D10",
"@  c #0E1113",
"#  c #071118",
"$  c #131718",
"%  c #141816",
"&  c #302F00",
"*  c #3F3E00",
"=  c #181E22",
"-  c #1F2629",
";  c #1C2323",
":  c #252C2D",
">  c #262F31",
",  c #282F30",
"<  c #273032",
"1  c #2A3335",
"2  c #2B3639",
"3  c #2E3A3D",
"4  c #323B3D",
"5  c #504F00",
"6  c #656300",
"7  c #757400",
"8  c #4A503E",
"9  c #6E7027",
"0  c #113651",
"q  c #323E41",
"w  c #354245",
"e  c #394649",
"r  c #3C494C",
"t  c #3F4440",
"y  c #3F4D51",
"u  c #3E7E41",
"i  c #3A5D71",
"p  c #345569",
"a  c #474C47",
"s  c #4C514C",
"d  c #404F51",
"f  c #435255",
"g  c #46575A",
"h  c #4A5A5D",
"j  c #545754",
"k  c #555A58",
"l  c #5A7A5D",
"z  c #747952",
"x  c #4C5E61",
"c  c #515D60",
"v  c #4E6063",
"b  c #516366",
"n  c #536669",
"m  c #5C676C",
"M  c #56696D",
"N  c #5D6262",
"B  c #596E71",
"V  c #5D7276",
"C  c #5F7578",
"Z  c #616364",
"A  c #66686A",
"S  c #796E65",
"D  c #69786A",
"F  c #636E72",
"G  c #62767A",
"H  c #64797D",
"J  c #69777B",
"K  c #767D7D",
"L  c #767B78",
"P  c #727762",
"I  c #965F32",
"U  c #9C683C",
"Y  c #AA682F",
"T  c #D16911",
"R  c #D1660B",
"E  c #ED7005",
"W  c #F57202",
"Q  c #FF7500",
"!  c #FE7909",
"~  c #FF7804",
"^  c #F77B11",
"/  c #EA7612",
"(  c #DE7920",
")  c #CE7F3C",
"_  c #D27D33",
"`  c #E97E20",
"'  c #8C6B4F",
"]  c #BF7D45",
"[  c #887360",
"{  c #18921A",
"}  c #04B305",
"|  c #00BF02",
" . c #08BE0A",
".. c #14AF15",
"X. c #17B819",
"o. c #08A70A",
"O. c #309D31",
"+. c #2C902F",
"@. c #21AF29",
"#. c #32BD35",
"$. c #30AF33",
"%. c #7D8227",
"&. c #00C001",
"*. c #0AC10C",
"=. c #11C113",
"-. c #26C028",
";. c #508850",
":. c #4A844A",
">. c #51BC54",
",. c #47B94F",
"<. c #5B8967",
"1. c #648074",
"2. c #77847A",
"3. c #719E7A",
"4. c #679470",
"5. c #75A17D",
"6. c #6EB770",
"7. c #78B87E",
"8. c #918E00",
"9. c #8E911D",
"0. c #A19F00",
"q. c #B0AD00",
"w. c #919622",
"e. c #959A25",
"r. c #858920",
"t. c #9EA036",
"y. c #ADAE25",
"u. c #B8B92F",
"i. c #D88237",
"p. c #FA892A",
"a. c #E48B3F",
"s. c #FB8F33",
"d. c #F99239",
"f. c #F6923D",
"g. c #CCC904",
"h. c #D5D200",
"j. c #DAD700",
"k. c #DCD900",
"l. c #D4D209",
"z. c #CAC815",
"x. c #90955F",
"c. c #96994A",
"v. c #AEB250",
"b. c #9E846D",
"n. c #89827B",
"m. c #8F9575",
"M. c #BA997B",
"N. c #CD8849",
"B. c #FA9844",
"V. c #E4914A",
"C. c #FAAD6B",
"Z. c #1F5E8C",
"A. c #26618C",
"S. c #226496",
"D. c #3B7297",
"F. c #3E7FAB",
"G. c #2877B2",
"H. c #40799E",
"J. c #667D82",
"K. c #6B8286",
"L. c #6D868A",
"P. c #788689",
"I. c #7E9A82",
"U. c #6D8791",
"Y. c #748D92",
"T. c #7A8F93",
"R. c #7A9195",
"E. c #799599",
"W. c #7AA382",
"Q. c #7EAE87",
"!. c #7EB281",
"~. c #5292BC",
"^. c #4A85AC",
"/. c #6E9FBB",
"(. c #7395AA",
"). c #7DA4BA",
"_. c #368CCC",
"`. c #2F8ED5",
"'. c #308ED4",
"]. c #3490D5",
"[. c #3C92D1",
"{. c #4894CA",
"}. c #539ACD",
"|. c #86878B",
" X c #848889",
".X c #888E90",
"XX c #828F92",
"oX c #8A9395",
"OX c #88989B",
"+X c #919597",
"@X c #92979A",
"#X c #939B9D",
"$X c #9B9B97",
"%X c #969589",
"&X c #A69888",
"*X c #97A499",
"=X c #86AB8B",
"-X c #879EA2",
";X c #8DA3A7",
":X c #9AA3A4",
">X c #95A7AA",
",X c #9BA6A9",
"<X c #9DACAD",
"1X c #8DAABC",
"2X c #96B0AD",
"3X c #A2ACAC",
"4X c #A0A6A9",
"5X c #A3ADB0",
"6X c #A6B2B4",
"7X c #A8B2B5",
"8X c #AAB7B9",
"9X c #ABBABC",
"0X c #A7B5B9",
"qX c #B1BBBD",
"wX c #BABDB9",
"eX c #CDB091",
"rX c #E9B88A",
"tX c #F4B986",
"yX c #C9BEAE",
"uX c #9AC2A5",
"iX c #F2C69E",
"pX c #C5C0B7",
"aX c #EFC6A1",
"sX c #E4D2BE",
"dX c #E2CAB5",
"fX c #85ABC5",
"gX c #97B2C3",
"hX c #AFBDC0",
"jX c #B2BCC0",
"kX c #B5C3C5",
"lX c #B9C1C4",
"zX c #B5C6C9",
"xX c #B8C6C8",
"cX c #BDCACC",
"vX c #BECDD0",
"bX c #C2CDCF",
"nX c #C2CED1",
"mX c #C4D1D3",
"MX c #CBD7DA",
"NX c #CCD6D8",
"BX c #D3DCDE",
"VX c #D6D7D5",
"CX c #D4D1C9",
"ZX c #E5D4C3",
"AX c #E9E0D7",
"SX c #D4DFE2",
"DX c #DAE2E4",
"FX c #DBE6E9",
"GX c #E3E4E2",
"HX c #E6ECED",
"JX c #E9EBEC",
"KX c #E0E7E8",
"LX c #E9EFF0",
"PX c #EBF0F1",
"IX c #F3F6F7",
"UX c None",
/* pixels */
"UXUXUXMXbXcXcXcXjXmXbXbXbXlXcXcXcXcXcXcXcXbXxXxXlXqXqX7X3XUXUXUX",
"UXKXBXmXxXxXkX+Xb.VXbXlXlXlXxXxXlXxXxXxXkX6X4X<XqXqX7X<X#X2.L UX",
"UXKXNXvXvXvX5XS T iXFXvXvXvXvXvXvXvXvXxX4X2.+.@.,.uXlX8X5X.XA UX",
"IXFXnXvXvXcX.XI W B.GXMXvXvXvXvXvXvXqX@Xl { } | &.X.7.9X7X4XL k ",
"IXDXcXcXcX0XS R Q ~ aXFXvXvXvXnXcX7X Xu o.| | | | |  .>.,X5X Xj ",
"PXnX0X6X3X&XY W Q Q f.yXwXkXxXbX7XD +.} | | | | | | | | -.Q.+Xj ",
"NX&XN._ ( / W ~ Q Q Q ^ ` i.N.eX3X{ | | | | | | | | &.&.&.X.=XN ",
"GX%X_ ~ Q Q Q Q Q Q Q Q Q Q s.dX5.} | | | | | | | | &.&.&.&.6.A ",
"IXwX[ N.~ Q Q Q Q Q Q Q Q d.sXnX2...| | | | | | | | | | | *.=XN ",
"IXSX:X|.) Q Q Q Q Q Q Q f.ZXSXxX XO.&.| | | | &.| | | | | -.*Xk ",
"IXDXcX#X[ E Q Q Q Q Q Q tXKXnXxX+X;.| | | | | | | | | | &.>.+Xs ",
"IXDXbX,X' W Q Q Q Q Q Q C.HXvXzX,XD ..&.| &.| | | | | | *.7. Xa ",
"IXDXcX@XU Q Q ! p.^ Q Q B.JXnXkX7XL O.| &.&. .| | &.&.&.-.*XK t ",
"JXBXzX.XY ~ d.rXyX&Xa.! p.AXnXjXqX X:.| &.&.&.| | &.&.&.>.$Xk @ ",
"HXzXOXZ ] rXCXMXnX5X$XM.V.ZXmX9XqX@XD O.=.=.=.=.=.=.=.#.5.P.q   ",
"HXzXB : :XxXbXcXnXbXqX,X$XpXNX8X6X5X|.P.W.W.5.5.3.4.<.1.J M 3   ",
"HXzXn G ;XL.H P.>X9XxXkX7X:XwX9X6X<X,X#X@XoXZ m P.m v b b v 2   ",
"HXkXY.E.f 4 i H.^.~./.1X6X>X-X-XOXOXT.Y.K.h X 9 %XJ b b v v 2   ",
"HXkXE.q # A._.`.`.`.`.{.).<XT.K.K.J.H G B = * h.v.P.M v x h 2   ",
"HXzXv O Z.`.'.'.`.`.`.`.[.1X,XL.J.H H G e X 0.k.z.m.J x h g 1   ",
"HX9X; 0 `.`.`.'.].'.'.'.`.}.0XT.H H C n @ 5 h.j.j.u.2.b g g <   ",
"LX>X+ S.].'.'.'.`.'.'.`.`.[.gX#XH C C 2 & q.k.j.j.l.x.A g f <   ",
"LXoXO G.`.`.'.'.'.'.'.'.'.'.fX:XH C h + 7 j.j.j.j.j.u.L c f >   ",
"LXoXO G.].'.'.'.'.'.'.'.'.'.fX:XC B - & g.h.j.j.j.j.j.c.m f :   ",
"LX>X+ S.'.`.`.'.'.'.'.'.'._.1XoXV d . 8.k.j.j.j.j.j.k.z.P c :   ",
"LX9X; 0 '.'.'.'.'.`.'.'.'.{.,XK.n = * h.j.j.j.j.j.j.j.j.t.b ,   ",
"LXkXx O Z.'.'.'.`.`.'.`.[.(..XC 4 o q.j.j.j.j.j.j.j.j.j.g.z 4   ",
"KXkXY.3 # Z._.'.`.'.'.{.(.T.J v @ 6 k.k.k.k.k.k.k.k.k.k.k.y.a . ",
"DXzXE.L.r 2 p D.F.^.^.U.P.G B < % %.e.e.e.w.w.w.w.w.9.9.9.r.a @ ",
"UXzX-XY.L.V v v M C J H V V v 4 f g f f d r r e w q q 4 3 : %   ",
"UX9X>XR.K.K.1.C V B B M M n b v h h g g f d r r e w q 4 < @   UX",
"UXUXUXY.C B M M n n v v h h g g f d d r e e e w q 4 4 2 - $ UXUX"
};
